<?xml version="1.0" encoding="UTF-8" standalone="no"?>
<!-- Generator: Adobe Illustrator 17.0.1, SVG Export Plug-In . SVG Version: 6.00 Build 0)  -->

<svg
   xmlns:dc="http://purl.org/dc/elements/1.1/"
   xmlns:cc="http://creativecommons.org/ns#"
   xmlns:rdf="http://www.w3.org/1999/02/22-rdf-syntax-ns#"
   xmlns:svg="http://www.w3.org/2000/svg"
   xmlns="http://www.w3.org/2000/svg"
   xmlns:sodipodi="http://sodipodi.sourceforge.net/DTD/sodipodi-0.dtd"
   xmlns:inkscape="http://www.inkscape.org/namespaces/inkscape"
   version="1.1"
   x="0px"
   y="0px"
   width="86px"
   height="86px"
   viewBox="0 0 86 86"
   enable-background="new 0 0 86 86"
   xml:space="preserve"
   id="svg2"
   inkscape:version="0.91 r13725"
   sodipodi:docname="icon.svg"><metadata
     id="metadata27"><rdf:RDF><cc:Work
         rdf:about=""><dc:format>image/svg+xml</dc:format><dc:type
           rdf:resource="http://purl.org/dc/dcmitype/StillImage" /><dc:title></dc:title></cc:Work></rdf:RDF></metadata><defs
     id="defs25" /><sodipodi:namedview
     pagecolor="#ffffff"
     bordercolor="#666666"
     borderopacity="1"
     objecttolerance="10"
     gridtolerance="10"
     guidetolerance="10"
     inkscape:pageopacity="0"
     inkscape:pageshadow="2"
     inkscape:window-width="1607"
     inkscape:window-height="1010"
     id="namedview23"
     showgrid="false"
     inkscape:zoom="2.744186"
     inkscape:cx="-42.45339"
     inkscape:cy="43"
     inkscape:window-x="0"
     inkscape:window-y="0"
     inkscape:window-maximized="0"
     inkscape:current-layer="svg2" /><g
     id="Layer_2"
     display="none" /><g
     id="Layer_1"><linearGradient
       id="SVGID_1_"
       gradientUnits="userSpaceOnUse"
       x1="0.7169"
       y1="85.2831"
       x2="85.2831"
       y2="0.7169"><stop
         offset="0"
         style="stop-color:#EB424A"
         id="stop7" /><stop
         offset="1"
         style="stop-color:#FF7500"
         id="stop9" /></linearGradient><path
       d="M 84.277,0.3 43,0.3 C 19.417,0.3 0.3,19.418 0.3,43 l 0,41.277 c 0,0.786 0.637,1.423 1.423,1.423 L 43,85.7 C 66.583,85.7 85.7,66.582 85.7,43 l 0,-41.277 C 85.7,0.937 85.063,0.3 84.277,0.3 Z"
       id="path11"
       style="fill:#ffcc00"
       inkscape:connector-curvature="0" /><g
       id="g13"><path
         d="m 75.022,12.586 c 0,-1.611 0,-1.611 -1.779,-1.611 0,0 -29.768,0 -30.244,0 -17.686,0 -32.024,12.983 -32.024,28.999 0,16.016 10.977,15.862 32.024,15.862 17.844,0 32.023,-12.983 32.023,-28.999 0,-0.432 0,-14.251 0,-14.251 z"
         id="path15"
         style="fill:#ffcc00"
         inkscape:connector-curvature="0" /></g><path
       d="M 44.176,57.633 C 38.912,47.317 27.824,40.19 15.026,40.19 l -3.783,0 c -0.169,1.277 -0.266,2.574 -0.268,3.893 0.004,4.865 1.192,9.469 3.298,13.569 5.278,10.279 16.343,17.373 29.113,17.373 l 4.052,0 0,-3.869 C 47.437,66.309 46.264,61.721 44.176,57.633 Z"
       id="path17"
       style="opacity:0.7;fill:#ffcc00"
       inkscape:connector-curvature="0" /><path
       d="m 0.3,54.763 c 7.055,-1.559 10.675,-5.385 10.675,-14.788 0,-6.308 -2.132,-12.141 -5.74,-16.9 C 2.089,29.024 0.3,35.802 0.3,43 l 0,11.763 z"
       id="path19"
       style="fill:#ffcc00"
       inkscape:connector-curvature="0" /><path
       d="M 7.824,57.652 C 9.836,53.553 10.971,48.949 10.975,44.083 10.973,42.764 10.88,41.466 10.719,40.19 l -3.615,0 c -2.319,0 -4.578,0.259 -6.752,0.744 C 0.319,41.619 0.3,42.307 0.3,43 l 0,24.415 c 3.113,-2.709 5.688,-6.021 7.524,-9.763 z"
       id="path21"
       style="opacity:0.6;fill:#ffcc00"
       inkscape:connector-curvature="0" /></g><path
     style="color:#000000;clip-rule:nonzero;display:inline;overflow:visible;visibility:visible;opacity:1;isolation:auto;mix-blend-mode:normal;color-interpolation:sRGB;color-interpolation-filters:linearRGB;solid-color:#000000;solid-opacity:1;fill:#ffcc00;fill-opacity:1;fill-rule:nonzero;stroke:none;stroke-width:1px;stroke-linecap:butt;stroke-linejoin:miter;stroke-miterlimit:4;stroke-dasharray:none;stroke-dashoffset:0;stroke-opacity:1;color-rendering:auto;image-rendering:auto;shape-rendering:auto;text-rendering:auto;enable-background:accumulate"
     d="m 46.877294,79.928939 -4.704914,-4.71538 2.684228,0 2.684228,0 -0.200906,-4.82839 C 47.119622,65.090486 46.563425,62.575457 44.736988,58.615106 l -1.184677,-2.568793 3.512182,-0.420011 c 10.9927,-1.314583 20.322368,-7.377103 25.014139,-16.254463 l 1.320482,-2.498499 5.881374,5.778161 5.881376,5.77816 -0.481662,2.733051 c -1.404675,7.970389 -5.573036,15.764092 -11.702799,21.881056 -4.65305,4.643334 -9.907281,7.945642 -16.057064,10.091929 -5.485936,1.914608 -4.674545,2.173687 -10.043045,-3.206758 z"
     id="path3367"
     inkscape:connector-curvature="0" /><text
     xml:space="preserve"
     style="font-style:normal;font-variant:normal;font-weight:normal;font-stretch:normal;font-size:49.95000076px;line-height:125%;font-family:Sans;-inkscape-font-specification:'Sans, Normal';text-align:start;letter-spacing:0px;word-spacing:0px;writing-mode:lr-tb;text-anchor:start;fill:#000000;fill-opacity:1;stroke:none;stroke-width:1px;stroke-linecap:butt;stroke-linejoin:miter;stroke-opacity:1"
     x="11.042904"
     y="57.193886"
     id="text3369"
     sodipodi:linespacing="125%"
     transform="scale(0.98351829,1.0167579)"><tspan
       sodipodi:role="line"
       id="tspan3371"
       x="11.042904"
       y="57.193886">Aa</tspan></text>
</svg>